<svg version="1.1" xmlns="http://www.w3.org/2000/svg" x="0px" y="0px"
     viewBox="0 0 1000 1000">
    <g>
        <path fill="#fff"
              d="M377.5,503.4H163.1v61.2h214.4V503.4L377.5,503.4z M163.1,717.8h214.4v-61.2H163.1V717.8L163.1,717.8z M745,472.8c-135.1,0-245,109.9-245,245c0,135.1,109.9,245,245,245c135.1,0,245-109.9,245-245C990,582.7,880.1,472.8,745,472.8L745,472.8z M745,901.5c-101.3,0-183.7-82.4-183.7-183.8C561.3,616.4,643.7,534,745,534c101.3,0,183.8,82.4,183.8,183.8C928.8,819.1,846.3,901.5,745,901.5L745,901.5z M101.9,809.7c-8.2,0-15.8-3.2-21.6-9c-5.8-5.8-9-13.5-9-21.6V411.5h708.6c19.9,2.8,39,8,57.1,15.3v-15.3v-61.2V197.2c0-24.6-9.6-47.6-26.9-65c-17.4-17.3-40.4-26.9-65-26.9h-61.3V37.2h-61.3v68.1H255V37.2h-61.3v68.1h-91.9c-24.5,0-47.6,9.6-65,26.9c-17.3,17.3-26.9,40.4-26.9,65V779c0,24.5,9.6,47.6,26.9,65c17.4,17.3,40.5,26.9,65,26.9h388.2c-14.8-18.4-27-39-36-61.3H101.9L101.9,809.7z M71.2,258.4v-41.1v-20.1c0-8.2,3.2-15.8,9-21.6c5.8-5.8,13.5-9,21.6-9h91.9v91.9H255v-91.9h367.5v91.9h61.3v-91.9H745c8.2,0,15.8,3.2,21.7,9c5.8,5.8,9,13.5,9,21.6v21.1v41.1v90.9H71.2V258.4L71.2,258.4z M775.6,595.3h-61.3v91.9v30.6v30.6h153.1v-61.3h-91.9V595.3L775.6,595.3z"/>
    </g>
</svg>
